<?xml version="1.0" standalone="no"?>
<!DOCTYPE svg PUBLIC "-//W3C//DTD SVG 20010904//EN"
 "http://www.w3.org/TR/2001/REC-SVG-20010904/DTD/svg10.dtd">
<svg version="1.0" xmlns="http://www.w3.org/2000/svg"
 width="160.000000pt" height="160.000000pt" viewBox="0 0 160.000000 160.000000"
 preserveAspectRatio="xMidYMid meet">
<metadata>
Created by potrace 1.11, written by Peter Selinger 2001-2013
</metadata>
<g transform="translate(0.000000,160.000000) scale(0.100000,-0.100000)"
fill="#000000" stroke="none">
<path d="M767 1564 c-2 -2 -19 -6 -38 -8 -187 -26 -326 -162 -372 -365 -20
-88 -13 -160 24 -253 20 -51 31 -69 121 -198 54 -77 88 -164 88 -225 0 -24 4
-46 9 -50 6 -3 8 -27 6 -53 -2 -26 1 -52 7 -59 6 -8 6 -19 -2 -33 -9 -16 -8
-21 5 -26 12 -5 13 -9 4 -20 -8 -10 -8 -18 0 -27 8 -10 7 -17 -1 -25 -9 -9 -7
-16 5 -30 9 -10 17 -24 17 -31 0 -23 107 -122 137 -127 53 -10 93 5 115 42 11
19 25 34 32 34 7 0 26 15 43 34 23 26 28 38 20 51 -6 12 -5 20 4 26 12 8 11
12 -2 22 -14 10 -14 14 -3 25 16 15 18 32 4 32 -15 0 -12 36 3 48 14 12 16 89
4 109 -4 6 -3 13 2 15 4 1 11 30 13 63 6 69 41 147 110 240 63 87 76 108 98
166 33 83 43 165 27 234 -5 22 -10 47 -12 55 -8 38 -50 120 -86 167 -64 85
-169 145 -279 159 -73 10 -99 12 -103 8z"/>
</g>
</svg>
